<svg width="44" height="44" viewBox="0 0 44 44" fill="none" xmlns="http://www.w3.org/2000/svg">
<circle cx="22.2" cy="22.0915" r="21.3" stroke="#A3CFFF"/>
<path d="M22.3321 17.2686C22.2806 17.2692 22.2295 17.2596 22.1817 17.2404C22.1339 17.2212 22.0904 17.1928 22.0536 17.1567C22.0168 17.1207 21.9874 17.0778 21.9672 17.0304C21.947 16.9831 21.9363 16.9322 21.9357 16.8807C21.9357 15.3798 23.1787 14.1643 24.7092 14.1643C24.7607 14.1636 24.8119 14.1731 24.8597 14.1922C24.9076 14.2114 24.9512 14.2398 24.988 14.2758C25.0249 14.3119 25.0542 14.3548 25.0744 14.4023C25.0945 14.4497 25.1051 14.5007 25.1055 14.5522C25.1055 16.0531 23.8636 17.2686 22.3321 17.2686ZM28.1189 25.44C28.2722 25.552 28.3219 25.7571 28.2352 25.9241C26.84 28.6574 25.727 30.0188 24.7102 30.0188C24.2367 30.0188 23.7717 29.8687 23.3182 29.577C22.9928 29.368 22.6159 29.2531 22.2293 29.2449C21.8426 29.2367 21.4612 29.3355 21.1272 29.5305C20.5775 29.8528 20.0544 30.0188 19.5576 30.0188C18.062 30.0188 15.594 25.5087 15.594 23.0344C15.594 20.3919 17.0093 18.3774 19.1612 18.3774C20.1738 18.3774 21.0479 18.5232 21.7825 18.8202C22.0932 18.9449 22.4452 18.9365 22.7485 18.7938C23.3447 18.5126 24.131 18.3774 25.1055 18.3774C26.2967 18.3774 27.3357 18.9587 28.1982 20.0844C28.2294 20.1249 28.2521 20.1714 28.2651 20.2209C28.278 20.2705 28.2808 20.3221 28.2734 20.3728C28.266 20.4234 28.2486 20.4721 28.222 20.5159C28.1955 20.5596 28.1604 20.5976 28.1189 20.6276C27.156 21.3358 26.692 22.1296 26.692 23.0344C26.692 23.9381 27.156 24.7329 28.1189 25.44Z" fill="black"/>
</svg>
