<svg width="44" height="44" viewBox="0 0 44 44" fill="none" xmlns="http://www.w3.org/2000/svg">
<path d="M29.7264 22.109C29.7379 23.5007 29.3757 24.8701 28.6777 26.0742C27.9801 27.2772 26.972 28.2705 25.7588 28.9502C24.5662 29.6427 23.2131 30.0111 21.834 30.0188C20.4486 30.0099 19.0897 29.6382 17.8926 28.9407C16.6946 28.2427 15.6998 27.2436 15.0071 26.0425C14.2909 24.8533 13.8997 23.4969 13.8727 22.109C13.8727 20.7153 14.2413 19.3463 14.9389 18.1406C15.6316 16.9395 16.6264 15.9404 17.8244 15.2424C19.0213 14.545 20.3799 14.1733 21.7651 14.1642C23.6732 14.1722 25.5147 14.8666 26.9535 16.1223C27.0056 16.171 27.0472 16.2299 27.0756 16.2954C27.104 16.3608 27.1187 16.4314 27.1187 16.5028C27.1187 16.5741 27.104 16.6447 27.0756 16.7102C27.0472 16.7757 27.0056 16.8346 26.9535 16.8833L25.4853 18.3546C25.3901 18.4393 25.2671 18.4861 25.1397 18.4861C25.0123 18.4861 24.8893 18.4393 24.7941 18.3546C23.9629 17.6566 22.9192 17.2616 21.834 17.2345C20.9865 17.2324 20.1536 17.4553 19.4205 17.8806C18.6873 18.3058 18.0802 18.918 17.6611 19.6547C17.2166 20.3968 16.978 21.244 16.9699 22.109C16.974 22.9565 17.2006 23.788 17.627 24.5204C18.0532 25.2558 18.6674 25.8644 19.4066 26.2837C20.1459 26.7031 20.9834 26.9181 21.8332 26.9065C22.6787 26.9054 23.5089 26.6812 24.24 26.2565C25.1785 25.6942 25.9046 24.8371 26.305 23.8189H22.687C22.6189 23.819 22.5515 23.8055 22.4887 23.7792C22.4259 23.7529 22.369 23.7144 22.3213 23.6658C22.2736 23.6172 22.236 23.5596 22.2109 23.4963C22.1858 23.433 22.1735 23.3653 22.1749 23.2973V21.2536C22.1737 21.186 22.1862 21.1188 22.2115 21.0561C22.2368 20.9934 22.2745 20.9364 22.3222 20.8886C22.37 20.8407 22.4269 20.803 22.4896 20.7776C22.5523 20.7522 22.6194 20.7396 22.687 20.7407H29.1462C29.2685 20.7389 29.3875 20.781 29.4815 20.8594C29.5754 20.9378 29.6382 21.0473 29.6583 21.168C29.709 21.4787 29.732 21.7942 29.7264 22.109Z" fill="black"/>
<circle cx="21.8" cy="22.0915" r="21.3" stroke="#A3CFFF"/>
</svg>
